<?xml version="1.0" encoding="UTF-8" standalone="no"?>
<!DOCTYPE svg PUBLIC "-//W3C//DTD SVG 1.1//EN" "http://www.w3.org/Graphics/SVG/1.1/DTD/svg11.dtd">
<!-- Generated by graphviz version 2.40.1 (20161225.0304)
 -->
<!-- Title: %0 Pages: 1 -->
<svg width="430pt" height="167pt" viewBox="0.00 0.00 429.81 167.37" xmlns="http://www.w3.org/2000/svg" xmlns:xlink="http://www.w3.org/1999/xlink">
<g id="graph0" class="graph" transform="scale(1 1) rotate(0) translate(4 163.3685)">
<title>%0</title>
<polygon fill="#ffffff" stroke="transparent" points="-4,4 -4,-163.3685 425.8113,-163.3685 425.8113,4 -4,4"/>
<!-- login -->
<g id="node1" class="node">
<title>login</title>
<ellipse fill="none" stroke="#000000" cx="69.8742" cy="-126.0359" rx="69.7486" ry="29.3315"/>
<text text-anchor="middle" x="69.8742" y="-130.2359" font-family="Times,serif" font-size="14.00" fill="#000000">login (node20)</text>
<text text-anchor="middle" x="69.8742" y="-113.4359" font-family="Times,serif" font-size="14.00" fill="#000000">172.26.0.20</text>
</g>
<!-- web -->
<g id="node2" class="node">
<title>web</title>
<ellipse fill="none" stroke="#000000" cx="355.798" cy="-129.9529" rx="66.0267" ry="29.3315"/>
<text text-anchor="middle" x="355.798" y="-134.1529" font-family="Times,serif" font-size="14.00" fill="#000000">web (node10)</text>
<text text-anchor="middle" x="355.798" y="-117.3529" font-family="Times,serif" font-size="14.00" fill="#000000">172.26.0.10</text>
</g>
<!-- login&#45;&gt;web -->
<g id="edge2" class="edge">
<title>login-&gt;web</title>
<path fill="none" stroke="#000000" d="M137.9167,-132.8182C180.8082,-134.5443 236.2402,-135.3626 280.4581,-134.9477"/>
<polygon fill="#000000" stroke="#000000" points="280.6178,-138.4462 290.5758,-134.8282 280.5351,-131.4467 280.6178,-138.4462"/>
<text text-anchor="middle" x="195.8566" y="-137.483" font-family="Times,serif" font-size="12.00" fill="#000000">home</text>
</g>
<!-- internal -->
<g id="node3" class="node">
<title>internal</title>
<polygon fill="none" stroke="#000000" points="243.6076,-36 185.0834,-36 185.0834,0 243.6076,0 243.6076,-36"/>
<text text-anchor="middle" x="214.3455" y="-13.8" font-family="Times,serif" font-size="14.00" fill="#000000">internal</text>
</g>
<!-- login&#45;&gt;internal -->
<g id="edge4" class="edge">
<title>login-&gt;internal</title>
<path fill="none" stroke="#000000" d="M104.4787,-100.1586C127.9724,-82.59 158.8343,-59.5114 181.8654,-42.2887"/>
<polygon fill="#000000" stroke="#000000" points="184.0557,-45.0212 189.9681,-36.2294 179.8636,-39.4153 184.0557,-45.0212"/>
<text text-anchor="middle" x="124.1851" y="-46.4236" font-family="Times,serif" font-size="12.00" fill="#000000">TCP</text>
<text text-anchor="middle" x="124.1851" y="-32.0236" font-family="Times,serif" font-size="12.00" fill="#000000">forward</text>
</g>
<!-- web&#45;&gt;login -->
<g id="edge1" class="edge">
<title>web-&gt;login</title>
<path fill="none" stroke="#000000" d="M291.3534,-123.3188C249.272,-121.5453 194.0331,-120.6668 149.2492,-121.0069"/>
<polygon fill="#000000" stroke="#000000" points="148.9502,-117.5096 138.9854,-121.1087 149.0197,-124.5093 148.9502,-117.5096"/>
<text text-anchor="middle" x="213.3005" y="-111.3629" font-family="Times,serif" font-size="12.00" fill="#000000">nis</text>
</g>
<!-- web&#45;&gt;internal -->
<g id="edge3" class="edge">
<title>web-&gt;internal</title>
<path fill="none" stroke="#000000" d="M323.3459,-104.2686C299.9544,-85.7554 268.5699,-60.916 245.4851,-42.6455"/>
<polygon fill="#000000" stroke="#000000" points="247.3993,-39.6969 237.3859,-36.2354 243.0551,-45.1858 247.3993,-39.6969"/>
<text text-anchor="middle" x="275.0807" y="-77.0571" font-family="Times,serif" font-size="12.00" fill="#000000">http</text>
</g>
</g>
</svg>